<svg xmlns="http://www.w3.org/2000/svg" version="1.1" xmlns:xlink="http://www.w3.org/1999/xlink" xmlns:svgjs="http://svgjs.com/svgjs" width="1440" height="560" preserveAspectRatio="none" viewBox="0 0 1440 560"><g mask="url(&quot;#SvgjsMask1024&quot;)" fill="none"><rect width="1440" height="560" x="0" y="0" fill="#0e2a47"></rect><path d="M 0,199 C 72,168.8 216,57.2 360,48 C 504,38.8 576,138.4 720,153 C 864,167.6 936,116.4 1080,121 C 1224,125.6 1368,165 1440,176L1440 560L0 560z" fill="#184a7e"></path><path d="M 0,541 C 96,502.8 288,363.8 480,350 C 672,336.2 768,470 960,472 C 1152,474 1344,382.4 1440,360L1440 560L0 560z" fill="#2264ab"></path></g><defs><mask id="SvgjsMask1024"><rect width="1440" height="560" fill="#ffffff"></rect></mask></defs></svg>